<svg width="829" height="675" viewBox="0 0 829 675" fill="none" xmlns="http://www.w3.org/2000/svg">
<path d="M122.959 561.948C130.183 605.305 140.31 628.179 157.119 669.823C117.207 670.446 92.3946 661.733 62.7287 623.976C27.6697 561.948 13.0543 534.98 7.89261 452.493C-9.10498 180.861 3.39774 87.3371 67.2234 36.9582C94.1923 15.6712 111.589 11.3971 149.927 8.19186L477.147 1C433.445 19.7344 406.13 30.6655 340.506 30.6655C287.468 40.554 290.165 112.471 316.234 125.955C638.959 255.404 422.311 537.677 192.178 475.649C149.028 459.467 122.959 468.457 121.161 496.325L122.959 561.948Z" fill="white"/>
<path d="M489.734 54.0383C515.437 42.9792 529.061 35.4151 549.065 14.4843H701.887C785.489 14.4843 800.471 54.0383 811.56 121.46C838.339 284.269 828.022 379.282 811.56 548.464C806.224 603.3 796.277 657.238 690.2 657.238L282.973 671.621C233.997 665.691 212.044 637.461 188.584 570.039C171.692 521.495 196.673 491.99 219.148 511.607C374.667 647.349 670.433 624.875 706.382 396.54C739.643 185.286 645.173 106.828 391.748 99.885C380.061 60.331 427.706 59.432 489.734 54.0383Z" fill="white"/>
<path d="M289.286 670.753C248.518 676.577 172.807 673.665 143.687 667.841L62.1519 440.708L207.75 196.102L257.254 38.8556L469.828 3.91199L571.747 18.4718L749.377 146.599L708.609 563.01L289.286 670.753Z" fill="white" stroke="white"/>
<path d="M122.959 561.948C130.183 605.305 140.31 628.179 157.119 669.823C117.207 670.446 92.3946 661.733 62.7287 623.976C27.6697 561.948 13.0543 534.98 7.89261 452.493C-9.10498 180.861 3.39774 87.3371 67.2234 36.9582C94.1923 15.6712 111.589 11.3971 149.927 8.19186L477.147 1C433.445 19.7344 406.13 30.6655 340.506 30.6655C287.468 40.554 290.165 112.471 316.234 125.955C638.959 255.404 422.311 537.677 192.178 475.649C149.028 459.467 122.959 468.457 121.161 496.325L122.959 561.948Z" fill="url(#paint0_linear_11_1281)" stroke="#006992"/>
<path d="M489.734 54.0383C515.437 42.9792 529.061 35.4151 549.065 14.4843H701.887C785.489 14.4843 800.471 54.0383 811.56 121.46C838.339 284.269 828.022 379.282 811.56 548.464C806.224 603.3 796.277 657.238 690.2 657.238L282.973 671.621C233.997 665.691 212.044 637.461 188.584 570.039C171.692 521.495 196.673 491.99 219.148 511.607C374.667 647.349 670.433 624.875 706.382 396.54C739.643 185.286 645.173 106.828 391.748 99.885C380.061 60.331 427.706 59.432 489.734 54.0383Z" fill="url(#paint1_linear_11_1281)" stroke="#80B4C9"/>
<path d="M489.734 54.0383C515.437 42.9792 529.061 35.4151 549.065 14.4843H701.887C785.489 14.4843 800.471 54.0383 811.56 121.46C838.339 284.269 828.022 379.282 811.56 548.464C806.224 603.3 796.277 657.238 690.2 657.238L282.973 671.621C233.997 665.691 212.044 637.461 188.584 570.039C171.692 521.495 196.673 491.99 219.148 511.607C374.667 647.349 670.433 624.875 706.382 396.54C739.643 185.286 645.173 106.828 391.748 99.885C380.061 60.331 427.706 59.432 489.734 54.0383Z" fill="url(#paint2_linear_11_1281)" stroke="#80B4C9"/>
<defs>
<linearGradient id="paint0_linear_11_1281" x1="412.722" y1="-108.673" x2="-130.247" y2="803.767" gradientUnits="userSpaceOnUse">
<stop offset="0.103825" stop-color="#001D4A"/>
<stop offset="0.892857" stop-color="#006992" stop-opacity="0.15"/>
</linearGradient>
<linearGradient id="paint1_linear_11_1281" x1="863.098" y1="-213.851" x2="304.847" y2="705.781" gradientUnits="userSpaceOnUse">
<stop offset="0.176034" stop-color="#80B4C9" stop-opacity="0.23"/>
<stop offset="0.795" stop-color="#80B4C9"/>
</linearGradient>
<linearGradient id="paint2_linear_11_1281" x1="863.098" y1="-213.851" x2="304.847" y2="705.781" gradientUnits="userSpaceOnUse">
<stop offset="0.176034" stop-color="#80B4C9" stop-opacity="0.23"/>
<stop offset="0.795" stop-color="#80B4C9"/>
</linearGradient>
</defs>
</svg>
