<svg xmlns="http://www.w3.org/2000/svg" width="500" height="161" fill="none" viewBox="0 0 500 161">
  <path fill="#006992" d="M224.361 45.333c-2.64 0-4.897-.543-6.771-1.628-1.875-1.085-3.318-2.627-4.329-4.625-.987-2.023-1.48-4.403-1.48-7.141 0-2.738.493-5.106 1.48-7.104 1.011-1.998 2.454-3.54 4.329-4.625 1.874-1.085 4.131-1.628 6.771-1.628 1.776 0 3.428.284 4.958.851 1.554.543 2.849 1.332 3.885 2.368l-1.332 3.071c-1.135-1.011-2.307-1.739-3.515-2.183-1.184-.469-2.479-.703-3.885-.703-2.812 0-4.958.863-6.438 2.59-1.48 1.727-2.22 4.181-2.22 7.363 0 3.182.74 5.649 2.22 7.4 1.48 1.727 3.626 2.59 6.438 2.59 1.406 0 2.701-.222 3.885-.666 1.208-.469 2.38-1.209 3.515-2.22l1.332 3.071c-1.036 1.011-2.331 1.8-3.885 2.368-1.53.567-3.182.851-4.958.851Zm18.788 0c-1.974 0-3.454-.555-4.44-1.665-.962-1.11-1.443-2.738-1.443-4.884V18.915h3.737v19.647c0 2.442.999 3.663 2.997 3.663.296 0 .567-.012.814-.037a4.73 4.73 0 0 0 .814-.148l-.074 2.997a10.51 10.51 0 0 1-2.405.296Zm5.426-.333V26.944h3.737V45h-3.737Zm.555-20.461 3.811-7.474h3.811l-5.032 7.474h-2.59ZM257.572 45V26.944h3.626v2.997c.617-1.085 1.456-1.912 2.516-2.479 1.086-.567 2.294-.851 3.626-.851 4.268 0 6.401 2.417 6.401 7.252V45h-3.737V34.085c0-1.554-.308-2.689-.925-3.404-.592-.715-1.529-1.073-2.812-1.073-1.504 0-2.713.481-3.626 1.443-.888.937-1.332 2.183-1.332 3.737V45h-3.737Zm20.986-22.237v-3.885h4.366v3.885h-4.366ZM278.891 45V26.944h3.737V45h-3.737Zm16.952.333c-1.85 0-3.454-.382-4.81-1.147-1.332-.79-2.368-1.887-3.108-3.293-.74-1.43-1.11-3.108-1.11-5.032 0-2.861.814-5.118 2.442-6.771 1.628-1.653 3.823-2.479 6.586-2.479a9.98 9.98 0 0 1 3.367.592c1.11.395 2.022.937 2.738 1.628l-1.184 2.627a6.569 6.569 0 0 0-2.294-1.406c-.814-.32-1.591-.481-2.331-.481-1.752 0-3.108.555-4.07 1.665-.938 1.085-1.406 2.64-1.406 4.662 0 2.023.468 3.614 1.406 4.773.962 1.135 2.318 1.702 4.07 1.702.74 0 1.517-.148 2.331-.444a7.066 7.066 0 0 0 2.294-1.443l1.184 2.664c-.716.666-1.641 1.196-2.775 1.591a9.883 9.883 0 0 1-3.33.592Zm14.944 0c-1.258 0-2.381-.247-3.367-.74-.987-.493-1.776-1.16-2.368-1.998-.568-.839-.851-1.788-.851-2.849 0-1.332.333-2.38.999-3.145.69-.765 1.813-1.32 3.367-1.665 1.578-.345 3.7-.518 6.364-.518h1.258v-.962c0-1.406-.296-2.417-.888-3.034-.592-.617-1.567-.925-2.923-.925-1.036 0-2.072.16-3.108.481-1.036.296-2.097.777-3.182 1.443l-1.147-2.627c.937-.666 2.109-1.196 3.515-1.591 1.406-.395 2.75-.592 4.033-.592 2.466 0 4.292.592 5.476 1.776 1.184 1.16 1.776 2.985 1.776 5.476V45h-3.515v-2.997a5.28 5.28 0 0 1-2.072 2.442c-.938.592-2.06.888-3.367.888Zm.74-2.664c1.332 0 2.442-.469 3.33-1.406.888-.937 1.332-2.121 1.332-3.552v-.999h-1.221c-1.801 0-3.219.086-4.255.259-1.012.173-1.739.469-2.183.888-.42.395-.629.95-.629 1.665 0 .937.32 1.702.962 2.294.641.567 1.529.851 2.664.851Zm35.179 2.664c-2.639 0-4.896-.543-6.771-1.628-1.874-1.085-3.317-2.627-4.329-4.625-.986-2.023-1.48-4.403-1.48-7.141 0-2.738.494-5.106 1.48-7.104 1.012-1.998 2.455-3.54 4.329-4.625 1.875-1.085 4.132-1.628 6.771-1.628 1.776 0 3.429.284 4.958.851 1.554.543 2.849 1.332 3.885 2.368l-1.332 3.071c-1.134-1.011-2.306-1.739-3.515-2.183-1.184-.469-2.479-.703-3.885-.703-2.812 0-4.958.863-6.438 2.59-1.48 1.727-2.22 4.181-2.22 7.363 0 3.182.74 5.649 2.22 7.4 1.48 1.727 3.626 2.59 6.438 2.59 1.406 0 2.701-.222 3.885-.666 1.209-.469 2.381-1.209 3.515-2.22l1.332 3.071c-1.036 1.011-2.331 1.8-3.885 2.368-1.529.567-3.182.851-4.958.851Zm12.572-22.57v-3.885h4.366v3.885h-4.366ZM359.611 45V26.944h3.737V45h-3.737Zm8.997 0V26.944h3.626v3.219c.938-2.146 2.886-3.342 5.846-3.589l1.221-.074.259 3.182-2.257.222c-3.28.32-4.921 2.01-4.921 5.069V45h-3.774Zm20.241.333c-4.366 0-6.549-2.43-6.549-7.289v-11.1h3.737v11.137c0 1.455.296 2.528.888 3.219.592.69 1.53 1.036 2.812 1.036 1.406 0 2.541-.469 3.404-1.406.888-.937 1.332-2.195 1.332-3.774V26.944h3.737V45h-3.626v-2.886c-.592 1.06-1.381 1.862-2.368 2.405-.986.543-2.109.814-3.367.814Zm.148-20.831 3.811-7.474h3.811l-5.032 7.474h-2.59ZM403.477 45V26.944h3.626v3.219c.937-2.146 2.886-3.342 5.846-3.589l1.221-.074.259 3.182-2.257.222c-3.281.32-4.921 2.01-4.921 5.069V45h-3.774Zm21.726 6.993c-1.628 0-3.145-.197-4.551-.592-1.406-.37-2.651-.962-3.737-1.776l1.147-2.664c1.086.74 2.196 1.283 3.33 1.628 1.135.345 2.319.518 3.552.518 3.454 0 5.18-1.727 5.18-5.18v-2.849c-.518 1.085-1.332 1.936-2.442 2.553-1.085.617-2.306.925-3.663.925-1.628 0-3.046-.37-4.255-1.11-1.208-.765-2.146-1.813-2.812-3.145-.666-1.357-.999-2.935-.999-4.736 0-1.776.333-3.33.999-4.662.666-1.357 1.604-2.405 2.812-3.145 1.209-.765 2.627-1.147 4.255-1.147 1.382 0 2.615.308 3.7.925 1.086.617 1.887 1.468 2.405 2.553v-3.145h3.626v16.539c0 2.837-.727 4.958-2.183 6.364-1.455 1.43-3.576 2.146-6.364 2.146Zm-.296-10.36c1.579 0 2.837-.543 3.774-1.628.938-1.085 1.406-2.565 1.406-4.44 0-1.875-.468-3.342-1.406-4.403-.937-1.085-2.195-1.628-3.774-1.628-1.578 0-2.836.543-3.774 1.628-.937 1.06-1.406 2.528-1.406 4.403 0 1.875.469 3.355 1.406 4.44.938 1.085 2.196 1.628 3.774 1.628Zm13.755-18.87v-3.885h4.366v3.885h-4.366ZM438.995 45V26.944h3.737V45h-3.737Zm16.952.333c-1.85 0-3.453-.382-4.81-1.147-1.332-.79-2.368-1.887-3.108-3.293-.74-1.43-1.11-3.108-1.11-5.032 0-2.861.814-5.118 2.442-6.771 1.628-1.653 3.824-2.479 6.586-2.479 1.135 0 2.257.197 3.367.592 1.11.395 2.023.937 2.738 1.628l-1.184 2.627a6.55 6.55 0 0 0-2.294-1.406c-.814-.32-1.591-.481-2.331-.481-1.751 0-3.108.555-4.07 1.665-.937 1.085-1.406 2.64-1.406 4.662 0 2.023.469 3.614 1.406 4.773.962 1.135 2.319 1.702 4.07 1.702.74 0 1.517-.148 2.331-.444a7.045 7.045 0 0 0 2.294-1.443l1.184 2.664c-.715.666-1.64 1.196-2.775 1.591a9.883 9.883 0 0 1-3.33.592Zm14.944 0c-1.258 0-2.38-.247-3.367-.74-.986-.493-1.776-1.16-2.368-1.998-.567-.839-.851-1.788-.851-2.849 0-1.332.333-2.38.999-3.145.691-.765 1.813-1.32 3.367-1.665 1.579-.345 3.7-.518 6.364-.518h1.258v-.962c0-1.406-.296-2.417-.888-3.034-.592-.617-1.566-.925-2.923-.925-1.036 0-2.072.16-3.108.481-1.036.296-2.096.777-3.182 1.443l-1.147-2.627c.938-.666 2.109-1.196 3.515-1.591 1.406-.395 2.751-.592 4.033-.592 2.467 0 4.292.592 5.476 1.776 1.184 1.16 1.776 2.985 1.776 5.476V45h-3.515v-2.997a5.274 5.274 0 0 1-2.072 2.442c-.937.592-2.059.888-3.367.888Zm.74-2.664c1.332 0 2.442-.469 3.33-1.406.888-.937 1.332-2.121 1.332-3.552v-.999h-1.221c-1.8 0-3.219.086-4.255.259-1.011.173-1.739.469-2.183.888-.419.395-.629.95-.629 1.665 0 .937.321 1.702.962 2.294.642.567 1.53.851 2.664.851ZM209.547 90l-10.263-23.265h3.663l8.151 18.942 8.151-18.942h3.498L212.484 90h-2.937Zm15.087-19.833v-3.465h3.894v3.465h-3.894ZM224.931 90V73.896h3.333V90h-3.333Zm14.163.297c-1.408 0-2.651-.33-3.729-.99-1.056-.682-1.881-1.65-2.475-2.904-.594-1.254-.891-2.739-.891-4.455 0-1.716.297-3.19.891-4.422.594-1.254 1.419-2.222 2.475-2.904 1.056-.682 2.299-1.023 3.729-1.023 1.21 0 2.288.264 3.234.792.946.528 1.65 1.243 2.112 2.145v-9.801h3.333V90h-3.267v-2.805c-.462.968-1.177 1.727-2.145 2.277-.946.55-2.035.825-3.267.825Zm.858-2.574c1.364 0 2.464-.495 3.3-1.485.836-.99 1.254-2.42 1.254-4.29s-.418-3.289-1.254-4.257c-.836-.99-1.936-1.485-3.3-1.485-1.386 0-2.497.495-3.333 1.485-.836.968-1.254 2.387-1.254 4.257 0 1.87.418 3.3 1.254 4.29.836.99 1.947 1.485 3.333 1.485Zm20.058 2.574c-2.64 0-4.719-.737-6.237-2.211-1.518-1.496-2.277-3.531-2.277-6.105 0-1.65.33-3.102.99-4.356.682-1.276 1.617-2.266 2.805-2.97 1.188-.704 2.552-1.056 4.092-1.056 2.222 0 3.971.715 5.247 2.145 1.276 1.408 1.914 3.355 1.914 5.841v1.122H254.73c.242 3.344 2.013 5.016 5.313 5.016.924 0 1.826-.143 2.706-.429.902-.286 1.749-.759 2.541-1.419l.99 2.31c-.726.66-1.661 1.177-2.805 1.551a11.088 11.088 0 0 1-3.465.561Zm-.495-14.355c-1.386 0-2.486.429-3.3 1.287-.814.858-1.309 2.002-1.485 3.432h9.009c-.066-1.496-.462-2.651-1.188-3.465-.726-.836-1.738-1.254-3.036-1.254Zm17.658 14.355c-1.628 0-3.036-.341-4.224-1.023a7.11 7.11 0 0 1-2.772-2.871c-.638-1.254-.957-2.739-.957-4.455 0-1.716.319-3.19.957-4.422.66-1.254 1.584-2.222 2.772-2.904 1.188-.682 2.596-1.023 4.224-1.023 1.584 0 2.97.341 4.158 1.023 1.188.682 2.112 1.65 2.772 2.904.66 1.232.99 2.706.99 4.422 0 1.716-.33 3.201-.99 4.455a7.11 7.11 0 0 1-2.772 2.871c-1.188.682-2.574 1.023-4.158 1.023Zm0-2.574c1.364 0 2.464-.495 3.3-1.485.836-.99 1.254-2.42 1.254-4.29s-.418-3.289-1.254-4.257c-.836-.99-1.936-1.485-3.3-1.485-1.386 0-2.497.495-3.333 1.485-.836.968-1.254 2.387-1.254 4.257 0 1.87.418 3.3 1.254 4.29.836.99 1.947 1.485 3.333 1.485Zm16.911 2.574c-1.76 0-3.08-.495-3.96-1.485-.858-.99-1.287-2.442-1.287-4.356V66.735h3.333v17.523c0 2.178.891 3.267 2.673 3.267.264 0 .506-.011.726-.033a4.2 4.2 0 0 0 .726-.132l-.066 2.673a9.367 9.367 0 0 1-2.145.264Zm9.988 0c-1.122 0-2.123-.22-3.003-.66-.88-.44-1.584-1.034-2.112-1.782-.506-.748-.759-1.595-.759-2.541 0-1.188.297-2.123.891-2.805.616-.682 1.617-1.177 3.003-1.485 1.408-.308 3.3-.462 5.676-.462h1.122v-.858c0-1.254-.264-2.156-.792-2.706-.528-.55-1.397-.825-2.607-.825-.924 0-1.848.143-2.772.429-.924.264-1.87.693-2.838 1.287l-1.023-2.343c.836-.594 1.881-1.067 3.135-1.419 1.254-.352 2.453-.528 3.597-.528 2.2 0 3.828.528 4.884 1.584 1.056 1.034 1.584 2.662 1.584 4.884V90h-3.135v-2.673a4.707 4.707 0 0 1-1.848 2.178c-.836.528-1.837.792-3.003.792Zm.66-2.376c1.188 0 2.178-.418 2.97-1.254.792-.836 1.188-1.892 1.188-3.168v-.891h-1.089c-1.606 0-2.871.077-3.795.231-.902.154-1.551.418-1.947.792-.374.352-.561.847-.561 1.485 0 .836.286 1.518.858 2.046.572.506 1.364.759 2.376.759Zm11.916 8.019V73.896h3.267v2.739c.462-.924 1.166-1.661 2.112-2.211.946-.55 2.035-.825 3.267-.825 1.43 0 2.673.341 3.729 1.023 1.078.682 1.903 1.65 2.475 2.904.594 1.232.891 2.706.891 4.422 0 1.716-.297 3.201-.891 4.455-.572 1.254-1.397 2.222-2.475 2.904-1.056.66-2.299.99-3.729.99-1.188 0-2.255-.253-3.201-.759a5.352 5.352 0 0 1-2.112-2.145v8.547h-3.333Zm7.821-8.217c1.386 0 2.486-.495 3.3-1.485.836-.99 1.254-2.42 1.254-4.29s-.418-3.289-1.254-4.257c-.814-.99-1.914-1.485-3.3-1.485s-2.497.495-3.333 1.485c-.814.968-1.221 2.387-1.221 4.257 0 1.87.407 3.3 1.221 4.29.836.99 1.947 1.485 3.333 1.485Zm16.824 2.574c-1.122 0-2.123-.22-3.003-.66-.88-.44-1.584-1.034-2.112-1.782-.506-.748-.759-1.595-.759-2.541 0-1.188.297-2.123.891-2.805.616-.682 1.617-1.177 3.003-1.485 1.408-.308 3.3-.462 5.676-.462h1.122v-.858c0-1.254-.264-2.156-.792-2.706-.528-.55-1.397-.825-2.607-.825-.924 0-1.848.143-2.772.429-.924.264-1.87.693-2.838 1.287l-1.023-2.343c.836-.594 1.881-1.067 3.135-1.419 1.254-.352 2.453-.528 3.597-.528 2.2 0 3.828.528 4.884 1.584 1.056 1.034 1.584 2.662 1.584 4.884V90h-3.135v-2.673a4.707 4.707 0 0 1-1.848 2.178c-.836.528-1.837.792-3.003.792Zm.66-2.376c1.188 0 2.178-.418 2.97-1.254.792-.836 1.188-1.892 1.188-3.168v-.891h-1.089c-1.606 0-2.871.077-3.795.231-.902.154-1.551.418-1.947.792-.374.352-.561.847-.561 1.485 0 .836.286 1.518.858 2.046.572.506 1.364.759 2.376.759ZM353.87 90V73.896h3.234v2.871c.836-1.914 2.574-2.981 5.214-3.201l1.089-.066.231 2.838-2.013.198c-2.926.286-4.389 1.793-4.389 4.521V90h-3.366Zm19.081.297c-1.628 0-3.036-.341-4.224-1.023a7.11 7.11 0 0 1-2.772-2.871c-.638-1.254-.957-2.739-.957-4.455 0-1.716.319-3.19.957-4.422.66-1.254 1.584-2.222 2.772-2.904 1.188-.682 2.596-1.023 4.224-1.023 1.584 0 2.97.341 4.158 1.023 1.188.682 2.112 1.65 2.772 2.904.66 1.232.99 2.706.99 4.422 0 1.716-.33 3.201-.99 4.455a7.11 7.11 0 0 1-2.772 2.871c-1.188.682-2.574 1.023-4.158 1.023Zm0-2.574c1.364 0 2.464-.495 3.3-1.485.836-.99 1.254-2.42 1.254-4.29s-.418-3.289-1.254-4.257c-.836-.99-1.936-1.485-3.3-1.485-1.386 0-2.497.495-3.333 1.485-.836.968-1.254 2.387-1.254 4.257 0 1.87.418 3.3 1.254 4.29.836.99 1.947 1.485 3.333 1.485Zm17.306 2.574c-1.32 0-2.552-.165-3.696-.495-1.144-.352-2.101-.836-2.871-1.452l.957-2.244a9.773 9.773 0 0 0 2.673 1.32 9.95 9.95 0 0 0 2.97.462c1.166 0 2.046-.209 2.64-.627.594-.418.891-.979.891-1.683 0-.572-.198-1.012-.594-1.32-.396-.33-.99-.583-1.782-.759l-3.135-.627c-2.772-.572-4.158-2.002-4.158-4.29 0-1.518.605-2.728 1.815-3.63 1.21-.902 2.794-1.353 4.752-1.353 1.122 0 2.189.165 3.201.495 1.034.33 1.892.825 2.574 1.485l-.957 2.244a7.107 7.107 0 0 0-2.277-1.32 7.486 7.486 0 0 0-2.541-.462c-1.144 0-2.013.22-2.607.66-.594.418-.891.99-.891 1.716 0 1.1.726 1.804 2.178 2.112l3.135.627c1.43.286 2.508.77 3.234 1.452.748.682 1.122 1.606 1.122 2.772 0 1.54-.605 2.75-1.815 3.63-1.21.858-2.816 1.287-4.818 1.287Zm17.436 0c-1.65 0-3.08-.341-4.29-1.023-1.188-.704-2.112-1.683-2.772-2.937-.66-1.276-.99-2.772-.99-4.488 0-2.552.726-4.565 2.178-6.039 1.452-1.474 3.41-2.211 5.874-2.211 1.012 0 2.013.176 3.003.528.99.352 1.804.836 2.442 1.452l-1.056 2.343a5.85 5.85 0 0 0-2.046-1.254c-.726-.286-1.419-.429-2.079-.429-1.562 0-2.772.495-3.63 1.485-.836.968-1.254 2.354-1.254 4.158 0 1.804.418 3.223 1.254 4.257.858 1.012 2.068 1.518 3.63 1.518.66 0 1.353-.132 2.079-.396a6.292 6.292 0 0 0 2.046-1.287l1.056 2.376c-.638.594-1.463 1.067-2.475 1.419-.99.352-1.98.528-2.97.528Zm14.983 0c-1.628 0-3.036-.341-4.224-1.023a7.11 7.11 0 0 1-2.772-2.871c-.638-1.254-.957-2.739-.957-4.455 0-1.716.319-3.19.957-4.422.66-1.254 1.584-2.222 2.772-2.904 1.188-.682 2.596-1.023 4.224-1.023 1.584 0 2.97.341 4.158 1.023 1.188.682 2.112 1.65 2.772 2.904.66 1.232.99 2.706.99 4.422 0 1.716-.33 3.201-.99 4.455a7.11 7.11 0 0 1-2.772 2.871c-1.188.682-2.574 1.023-4.158 1.023Zm0-2.574c1.364 0 2.464-.495 3.3-1.485.836-.99 1.254-2.42 1.254-4.29s-.418-3.289-1.254-4.257c-.836-.99-1.936-1.485-3.3-1.485-1.386 0-2.497.495-3.333 1.485-.836.968-1.254 2.387-1.254 4.257 0 1.87.418 3.3 1.254 4.29.836.99 1.947 1.485 3.333 1.485Zm-1.155-15.972 3.399-6.666h3.399l-4.488 6.666h-2.31ZM434.34 95.94V73.896h3.267v2.739c.462-.924 1.166-1.661 2.112-2.211.946-.55 2.035-.825 3.267-.825 1.43 0 2.673.341 3.729 1.023 1.078.682 1.903 1.65 2.475 2.904.594 1.232.891 2.706.891 4.422 0 1.716-.297 3.201-.891 4.455-.572 1.254-1.397 2.222-2.475 2.904-1.056.66-2.299.99-3.729.99-1.188 0-2.255-.253-3.201-.759a5.352 5.352 0 0 1-2.112-2.145v8.547h-3.333Zm7.821-8.217c1.386 0 2.486-.495 3.3-1.485.836-.99 1.254-2.42 1.254-4.29s-.418-3.289-1.254-4.257c-.814-.99-1.914-1.485-3.3-1.485s-2.497.495-3.333 1.485c-.814.968-1.221 2.387-1.221 4.257 0 1.87.407 3.3 1.221 4.29.836.99 1.947 1.485 3.333 1.485Zm11.379-17.556v-3.465h3.894v3.465h-3.894ZM453.837 90V73.896h3.333V90h-3.333Zm15.119.297c-1.65 0-3.08-.341-4.29-1.023-1.188-.704-2.112-1.683-2.772-2.937-.66-1.276-.99-2.772-.99-4.488 0-2.552.726-4.565 2.178-6.039 1.452-1.474 3.41-2.211 5.874-2.211 1.012 0 2.013.176 3.003.528.99.352 1.804.836 2.442 1.452l-1.056 2.343a5.85 5.85 0 0 0-2.046-1.254c-.726-.286-1.419-.429-2.079-.429-1.562 0-2.772.495-3.63 1.485-.836.968-1.254 2.354-1.254 4.158 0 1.804.418 3.223 1.254 4.257.858 1.012 2.068 1.518 3.63 1.518.66 0 1.353-.132 2.079-.396a6.292 6.292 0 0 0 2.046-1.287l1.056 2.376c-.638.594-1.463 1.067-2.475 1.419-.99.352-1.98.528-2.97.528Zm13.328 0c-1.122 0-2.123-.22-3.003-.66-.88-.44-1.584-1.034-2.112-1.782-.506-.748-.759-1.595-.759-2.541 0-1.188.297-2.123.891-2.805.616-.682 1.617-1.177 3.003-1.485 1.408-.308 3.3-.462 5.676-.462h1.122v-.858c0-1.254-.264-2.156-.792-2.706-.528-.55-1.397-.825-2.607-.825-.924 0-1.848.143-2.772.429-.924.264-1.87.693-2.838 1.287l-1.023-2.343c.836-.594 1.881-1.067 3.135-1.419 1.254-.352 2.453-.528 3.597-.528 2.2 0 3.828.528 4.884 1.584 1.056 1.034 1.584 2.662 1.584 4.884V90h-3.135v-2.673a4.707 4.707 0 0 1-1.848 2.178c-.836.528-1.837.792-3.003.792Zm.66-2.376c1.188 0 2.178-.418 2.97-1.254.792-.836 1.188-1.892 1.188-3.168v-.891h-1.089c-1.606 0-2.871.077-3.795.231-.902.154-1.551.418-1.947.792-.374.352-.561.847-.561 1.485 0 .836.286 1.518.858 2.046.572.506 1.364.759 2.376.759Zm-271.742 52.412c-2.836 0-5.229-.53-7.178-1.591-1.948-1.085-3.428-2.627-4.44-4.625-.986-1.998-1.48-4.378-1.48-7.141 0-2.738.506-5.106 1.517-7.104 1.012-2.023 2.479-3.577 4.403-4.662 1.924-1.085 4.231-1.628 6.919-1.628 1.85 0 3.565.271 5.143.814 1.579.543 2.899 1.32 3.959 2.331l-1.369 2.997c-1.184-.987-2.392-1.69-3.626-2.109-1.233-.444-2.602-.666-4.107-.666-2.886 0-5.081.876-6.586 2.627-1.504 1.727-2.257 4.193-2.257 7.4 0 3.281.765 5.772 2.294 7.474 1.554 1.702 3.873 2.553 6.956 2.553 1.875 0 3.737-.308 5.587-.925v-6.993h-6.364v-2.886h9.583v12.284c-1.11.543-2.491.987-4.144 1.332a23.156 23.156 0 0 1-4.81.518Zm20.885 0c-4.366 0-6.549-2.43-6.549-7.289v-11.1h3.737v11.137c0 1.455.296 2.528.888 3.219.592.691 1.529 1.036 2.812 1.036 1.406 0 2.541-.469 3.404-1.406.888-.937 1.332-2.195 1.332-3.774v-10.212h3.737V140h-3.626v-2.886c-.592 1.061-1.381 1.862-2.368 2.405-.987.543-2.109.814-3.367.814Zm20.954 0c-1.48 0-2.861-.185-4.144-.555-1.282-.395-2.355-.937-3.219-1.628l1.073-2.516a10.967 10.967 0 0 0 2.997 1.48c1.11.345 2.22.518 3.33.518 1.308 0 2.294-.234 2.96-.703.666-.469.999-1.098.999-1.887 0-.641-.222-1.135-.666-1.48-.444-.37-1.11-.654-1.998-.851l-3.515-.703c-3.108-.641-4.662-2.245-4.662-4.81 0-1.702.679-3.059 2.035-4.07 1.357-1.011 3.133-1.517 5.328-1.517a11.5 11.5 0 0 1 3.589.555c1.16.37 2.122.925 2.886 1.665l-1.073 2.516a7.968 7.968 0 0 0-2.553-1.48 8.399 8.399 0 0 0-2.849-.518c-1.282 0-2.257.247-2.923.74-.666.469-.999 1.11-.999 1.924 0 1.233.814 2.023 2.442 2.368l3.515.703c1.604.321 2.812.863 3.626 1.628.839.765 1.258 1.801 1.258 3.108 0 1.727-.678 3.083-2.035 4.07-1.356.962-3.157 1.443-5.402 1.443Zm19.111 0c-2.27 0-3.959-.58-5.069-1.739-1.11-1.159-1.665-2.837-1.665-5.032v-8.732h-3.515v-2.886h3.515v-5.439h3.737v5.439h5.587v2.886h-5.587v8.436c0 1.307.271 2.294.814 2.96.567.666 1.48.999 2.738.999a5.84 5.84 0 0 0 1.147-.111c.37-.099.74-.21 1.11-.333l.592 2.812c-.37.222-.888.395-1.554.518a8.229 8.229 0 0 1-1.85.222Zm11.589 0c-1.258 0-2.38-.247-3.367-.74-.986-.493-1.776-1.159-2.368-1.998-.567-.839-.851-1.788-.851-2.849 0-1.332.333-2.38.999-3.145.691-.765 1.813-1.32 3.367-1.665 1.579-.345 3.7-.518 6.364-.518h1.258v-.962c0-1.406-.296-2.417-.888-3.034-.592-.617-1.566-.925-2.923-.925-1.036 0-2.072.16-3.108.481-1.036.296-2.096.777-3.182 1.443l-1.147-2.627c.938-.666 2.109-1.196 3.515-1.591 1.406-.395 2.751-.592 4.033-.592 2.467 0 4.292.592 5.476 1.776 1.184 1.159 1.776 2.985 1.776 5.476V140h-3.515v-2.997a5.274 5.274 0 0 1-2.072 2.442c-.937.592-2.059.888-3.367.888Zm.74-2.664c1.332 0 2.442-.469 3.33-1.406.888-.937 1.332-2.121 1.332-3.552v-.999h-1.221c-1.8 0-3.219.086-4.255.259-1.011.173-1.739.469-2.183.888-.419.395-.629.95-.629 1.665 0 .937.321 1.702.962 2.294.642.567 1.53.851 2.664.851ZM302.953 140l-7.77-18.056h4.033l5.513 13.727 5.661-13.727h3.811L306.32 140h-3.367Zm21.45.333c-1.825 0-3.404-.382-4.736-1.147a7.977 7.977 0 0 1-3.108-3.219c-.715-1.406-1.073-3.071-1.073-4.995s.358-3.577 1.073-4.958c.74-1.406 1.776-2.491 3.108-3.256 1.332-.765 2.911-1.147 4.736-1.147 1.776 0 3.33.382 4.662 1.147 1.332.765 2.368 1.85 3.108 3.256.74 1.381 1.11 3.034 1.11 4.958 0 1.924-.37 3.589-1.11 4.995a7.977 7.977 0 0 1-3.108 3.219c-1.332.765-2.886 1.147-4.662 1.147Zm0-2.886c1.529 0 2.763-.555 3.7-1.665.937-1.11 1.406-2.713 1.406-4.81 0-2.097-.469-3.688-1.406-4.773-.937-1.11-2.171-1.665-3.7-1.665-1.554 0-2.8.555-3.737 1.665-.937 1.085-1.406 2.676-1.406 4.773 0 2.097.469 3.7 1.406 4.81.937 1.11 2.183 1.665 3.737 1.665Zm34.896 2.886c-2.64 0-4.897-.543-6.771-1.628-1.875-1.085-3.318-2.627-4.329-4.625-.987-2.023-1.48-4.403-1.48-7.141 0-2.738.493-5.106 1.48-7.104 1.011-1.998 2.454-3.54 4.329-4.625 1.874-1.085 4.131-1.628 6.771-1.628 1.776 0 3.428.284 4.958.851 1.554.543 2.849 1.332 3.885 2.368l-1.332 3.071c-1.135-1.011-2.307-1.739-3.515-2.183-1.184-.469-2.479-.703-3.885-.703-2.812 0-4.958.863-6.438 2.59-1.48 1.727-2.22 4.181-2.22 7.363 0 3.182.74 5.649 2.22 7.4 1.48 1.727 3.626 2.59 6.438 2.59 1.406 0 2.701-.222 3.885-.666 1.208-.469 2.38-1.209 3.515-2.22l1.332 3.071c-1.036 1.011-2.331 1.801-3.885 2.368-1.53.567-3.182.851-4.958.851Zm18.062 0c-1.258 0-2.38-.247-3.367-.74-.986-.493-1.776-1.159-2.368-1.998-.567-.839-.851-1.788-.851-2.849 0-1.332.333-2.38.999-3.145.691-.765 1.813-1.32 3.367-1.665 1.579-.345 3.7-.518 6.364-.518h1.258v-.962c0-1.406-.296-2.417-.888-3.034-.592-.617-1.566-.925-2.923-.925-1.036 0-2.072.16-3.108.481-1.036.296-2.096.777-3.182 1.443l-1.147-2.627c.938-.666 2.109-1.196 3.515-1.591 1.406-.395 2.751-.592 4.033-.592 2.467 0 4.292.592 5.476 1.776 1.184 1.159 1.776 2.985 1.776 5.476V140H382.8v-2.997a5.274 5.274 0 0 1-2.072 2.442c-.937.592-2.059.888-3.367.888Zm.74-2.664c1.332 0 2.442-.469 3.33-1.406.888-.937 1.332-2.121 1.332-3.552v-.999h-1.221c-1.8 0-3.219.086-4.255.259-1.011.173-1.739.469-2.183.888-.419.395-.629.95-.629 1.665 0 .937.321 1.702.962 2.294.642.567 1.53.851 2.664.851ZM391.462 140v-18.056h3.626v3.219c.938-2.146 2.886-3.342 5.846-3.589l1.221-.074.259 3.182-2.257.222c-3.28.321-4.921 2.01-4.921 5.069V140h-3.774Zm20.214 0-7.77-18.056h4.033l5.513 13.727 5.661-13.727h3.811L415.043 140h-3.367Zm19.343.333c-1.258 0-2.381-.247-3.367-.74-.987-.493-1.776-1.159-2.368-1.998-.568-.839-.851-1.788-.851-2.849 0-1.332.333-2.38.999-3.145.69-.765 1.813-1.32 3.367-1.665 1.578-.345 3.7-.518 6.364-.518h1.258v-.962c0-1.406-.296-2.417-.888-3.034-.592-.617-1.567-.925-2.923-.925-1.036 0-2.072.16-3.108.481-1.036.296-2.097.777-3.182 1.443l-1.147-2.627c.937-.666 2.109-1.196 3.515-1.591 1.406-.395 2.75-.592 4.033-.592 2.466 0 4.292.592 5.476 1.776 1.184 1.159 1.776 2.985 1.776 5.476V140h-3.515v-2.997a5.28 5.28 0 0 1-2.072 2.442c-.938.592-2.06.888-3.367.888Zm.74-2.664c1.332 0 2.442-.469 3.33-1.406.888-.937 1.332-2.121 1.332-3.552v-.999H435.2c-1.801 0-3.219.086-4.255.259-1.012.173-1.739.469-2.183.888-.42.395-.629.95-.629 1.665 0 .937.32 1.702.962 2.294.641.567 1.529.851 2.664.851Zm19.244 2.664c-1.974 0-3.454-.555-4.44-1.665-.962-1.11-1.443-2.738-1.443-4.884v-19.869h3.737v19.647c0 2.442.999 3.663 2.997 3.663.296 0 .567-.012.814-.037a4.76 4.76 0 0 0 .814-.148l-.074 2.997c-.839.197-1.641.296-2.405.296Zm5.426-.333v-26.085h3.737v10.841c.617-1.036 1.443-1.813 2.479-2.331 1.061-.543 2.245-.814 3.552-.814 4.268 0 6.401 2.417 6.401 7.252V140h-3.737v-10.915c0-1.554-.308-2.689-.925-3.404-.592-.715-1.529-1.073-2.812-1.073-1.504 0-2.713.481-3.626 1.443-.888.937-1.332 2.183-1.332 3.737V140h-3.737Zm29.163.333c-1.826 0-3.404-.382-4.736-1.147a7.977 7.977 0 0 1-3.108-3.219c-.716-1.406-1.073-3.071-1.073-4.995s.357-3.577 1.073-4.958c.74-1.406 1.776-2.491 3.108-3.256 1.332-.765 2.91-1.147 4.736-1.147 1.776 0 3.33.382 4.662 1.147 1.332.765 2.368 1.85 3.108 3.256.74 1.381 1.11 3.034 1.11 4.958 0 1.924-.37 3.589-1.11 4.995a7.977 7.977 0 0 1-3.108 3.219c-1.332.765-2.886 1.147-4.662 1.147Zm0-2.886c1.529 0 2.762-.555 3.7-1.665.937-1.11 1.406-2.713 1.406-4.81 0-2.097-.469-3.688-1.406-4.773-.938-1.11-2.171-1.665-3.7-1.665-1.554 0-2.8.555-3.737 1.665-.938 1.085-1.406 2.676-1.406 4.773 0 2.097.468 3.7 1.406 4.81.937 1.11 2.183 1.665 3.737 1.665Z"/>
  <path fill="url(#a)" stroke="#006992" d="M26.955 128.38c1.538 9.227 3.693 14.095 7.27 22.957-8.494.133-13.775-1.722-20.088-9.757-7.461-13.2-10.572-18.94-11.67-36.494-3.618-57.808-.957-77.712 12.627-88.433 5.739-4.53 9.441-5.44 17.6-6.122L102.332 9c-9.3 3.987-15.113 6.313-29.08 6.313-11.287 2.105-10.713 17.41-5.165 20.28 68.682 27.549 22.575 87.621-26.4 74.421-9.184-3.444-14.732-1.531-15.115 4.4l.383 13.966Z"/>
  <path fill="url(#b)" stroke="#80B4C9" d="M105.011 20.288c5.47-2.354 8.37-3.964 12.627-8.418h32.523c17.792 0 20.98 8.418 23.34 22.766 5.699 34.649 3.504 54.87 0 90.874-1.135 11.67-3.252 23.149-25.827 23.149l-86.665 3.061c-10.423-1.262-15.095-7.27-20.088-21.619-3.595-10.33 1.722-16.61 6.505-12.435 33.097 28.888 96.041 24.106 103.692-24.488 7.078-44.959-13.027-61.656-66.96-63.133-2.487-8.418 7.652-8.61 20.853-9.758Z"/>
  <defs>
    <linearGradient id="a" x1="88.622" x2="-26.932" y1="-14.34" y2="179.843" gradientUnits="userSpaceOnUse">
      <stop offset=".104" stop-color="#001D4A"/>
      <stop offset=".893" stop-color="#006992" stop-opacity=".15"/>
    </linearGradient>
    <linearGradient id="b" x1="184.47" x2="65.664" y1="-36.724" y2="158.99" gradientUnits="userSpaceOnUse">
      <stop offset=".176" stop-color="#80B4C9" stop-opacity=".23"/>
      <stop offset=".795" stop-color="#80B4C9"/>
    </linearGradient>
  </defs>
</svg>
