<svg xmlns="http://www.w3.org/2000/svg" width="216" height="71" fill="none" viewBox="0 0 216 71">
  <g filter="url(#a)">
    <rect width="208" height="63" x="4" fill="#fff" rx="3"/>
    <path fill="#fff" d="M19.529 49.826c.564 3.388 1.355 5.175 2.668 8.428-3.118.049-5.056-.632-7.374-3.582-2.74-4.846-3.881-6.953-4.284-13.397-1.328-21.223-.352-28.53 4.635-32.466 2.107-1.663 3.466-1.997 6.462-2.247L47.2 6c-3.415 1.464-5.549 2.318-10.676 2.318-4.144.772-3.933 6.391-1.896 7.445 25.214 10.113 8.288 32.167-9.692 27.32-3.372-1.264-5.409-.561-5.549 1.616l.14 5.127Z"/>
    <path fill="#fff" d="M48.184 10.144c2.008-.864 3.073-1.455 4.636-3.09h11.94c6.531 0 7.701 3.09 8.568 8.357 2.092 12.72 1.286 20.144 0 33.362-.417 4.284-1.194 8.498-9.482 8.498L32.03 58.395c-3.826-.464-5.542-2.67-7.375-7.937-1.32-3.792.633-6.098 2.389-4.565 12.15 10.605 35.258 8.85 38.067-8.99 2.598-16.505-4.783-22.635-24.583-23.177-.913-3.09 2.81-3.16 7.656-3.582Z"/>
    <path fill="#fff" stroke="#fff" d="M32.523 58.327c-3.185.455-9.555-.227-11.83-.682l-5.915-17.291 11.375-19.11 3.868-12.286 16.608-2.73 7.963 1.137 13.878 10.01-3.185 32.534-32.761 8.418Z"/>
    <path fill="url(#b)" stroke="#006992" d="M19.529 49.826c.564 3.388 1.355 5.175 2.668 8.428-3.118.049-5.056-.632-7.374-3.582-2.74-4.846-3.881-6.953-4.284-13.397-1.328-21.223-.352-28.53 4.635-32.466 2.107-1.663 3.466-1.997 6.462-2.247L47.2 6c-3.415 1.464-5.549 2.318-10.676 2.318-4.144.772-3.933 6.391-1.896 7.445 25.214 10.113 8.288 32.167-9.692 27.32-3.372-1.264-5.409-.561-5.549 1.616l.14 5.127Z"/>
    <path fill="url(#c)" stroke="#80B4C9" d="M48.184 10.144c2.008-.864 3.073-1.455 4.636-3.09h11.94c6.531 0 7.701 3.09 8.568 8.357 2.092 12.72 1.286 20.144 0 33.362-.417 4.284-1.194 8.498-9.482 8.498L32.03 58.395c-3.826-.464-5.542-2.67-7.375-7.937-1.32-3.792.633-6.098 2.389-4.565 12.15 10.605 35.258 8.85 38.067-8.99 2.598-16.505-4.783-22.635-24.583-23.177-.913-3.09 2.81-3.16 7.656-3.582Z"/>
    <path fill="url(#d)" stroke="#80B4C9" d="M48.184 10.144c2.008-.864 3.073-1.455 4.636-3.09h11.94c6.531 0 7.701 3.09 8.568 8.357 2.092 12.72 1.286 20.144 0 33.362-.417 4.284-1.194 8.498-9.482 8.498L32.03 58.395c-3.826-.464-5.542-2.67-7.375-7.937-1.32-3.792.633-6.098 2.389-4.565 12.15 10.605 35.258 8.85 38.067-8.99 2.598-16.505-4.783-22.635-24.583-23.177-.913-3.09 2.81-3.16 7.656-3.582Z"/>
    <path fill="#006992" d="M101.367 20.13c-.953 0-1.772-.19-2.457-.572a3.95 3.95 0 0 1-1.56-1.638c-.364-.71-.546-1.547-.546-2.509s.182-1.794.546-2.496a3.866 3.866 0 0 1 1.56-1.625c.685-.39 1.504-.585 2.457-.585.616 0 1.196.095 1.742.286.555.19 1.01.464 1.365.819l-.546 1.326a3.936 3.936 0 0 0-1.196-.715 3.639 3.639 0 0 0-1.313-.234c-.927 0-1.633.282-2.119.845-.485.555-.728 1.348-.728 2.379s.243 1.829.728 2.392c.486.563 1.192.845 2.119.845a3.83 3.83 0 0 0 1.313-.221 4.175 4.175 0 0 0 1.196-.728l.546 1.326c-.355.347-.81.62-1.365.819a5.242 5.242 0 0 1-1.742.286Zm6.614 0c-.754 0-1.313-.204-1.677-.611-.356-.416-.533-1.023-.533-1.82v-6.864h1.625v6.786c0 .78.329 1.17.988 1.17.095 0 .19-.004.286-.013.095-.009.186-.026.273-.052l-.026 1.287a3.846 3.846 0 0 1-.936.117Zm1.941-.13v-6.357h1.625V20h-1.625Zm.26-7.202 1.339-2.639h1.599l-1.846 2.639h-1.092ZM113.235 20v-6.357h1.586v.988c.217-.364.507-.641.871-.832a2.71 2.71 0 0 1 1.248-.286c1.5 0 2.249.871 2.249 2.613V20h-1.625v-3.796c0-.494-.095-.854-.286-1.079-.182-.225-.468-.338-.858-.338-.476 0-.858.152-1.144.455-.277.295-.416.689-.416 1.183V20h-1.625Zm7.501-7.722v-1.586h1.82v1.586h-1.82ZM120.84 20v-6.357h1.625V20h-1.625Zm6.251.13c-.667 0-1.248-.134-1.742-.403a2.862 2.862 0 0 1-1.144-1.17c-.268-.503-.403-1.092-.403-1.768 0-.676.135-1.257.403-1.742.269-.494.65-.871 1.144-1.131.494-.269 1.075-.403 1.742-.403.408 0 .811.065 1.209.195.399.13.728.312.988.546l-.481 1.131a2.365 2.365 0 0 0-.767-.455 2.288 2.288 0 0 0-.806-.156c-.563 0-1.001.178-1.313.533-.303.347-.455.845-.455 1.495 0 .641.152 1.148.455 1.521.312.364.75.546 1.313.546.252 0 .52-.052.806-.156.286-.104.542-.26.767-.468l.481 1.144c-.26.225-.593.407-1.001.546-.398.13-.797.195-1.196.195Zm5.249 0a2.84 2.84 0 0 1-1.235-.26 2.242 2.242 0 0 1-.845-.728 1.831 1.831 0 0 1-.299-1.027c0-.468.121-.836.364-1.105.243-.277.637-.477 1.183-.598s1.278-.182 2.197-.182h.455v-.273c0-.433-.095-.745-.286-.936-.191-.19-.511-.286-.962-.286-.355 0-.719.056-1.092.169a4.73 4.73 0 0 0-1.131.494l-.468-1.105c.225-.156.49-.29.793-.403a5.24 5.24 0 0 1 .975-.273 4.94 4.94 0 0 1 .975-.104c.927 0 1.616.217 2.067.65.451.425.676 1.088.676 1.989V20h-1.521v-1.014a1.807 1.807 0 0 1-.702.845c-.321.2-.702.299-1.144.299Zm.338-1.118c.425 0 .776-.147 1.053-.442.286-.295.429-.667.429-1.118v-.286h-.442c-.815 0-1.382.065-1.703.195-.312.121-.468.347-.468.676 0 .286.1.52.299.702.199.182.477.273.832.273Zm12.602 1.118c-.953 0-1.772-.19-2.457-.572a3.95 3.95 0 0 1-1.56-1.638c-.364-.71-.546-1.547-.546-2.509s.182-1.794.546-2.496a3.866 3.866 0 0 1 1.56-1.625c.685-.39 1.504-.585 2.457-.585.616 0 1.196.095 1.742.286.555.19 1.01.464 1.365.819l-.546 1.326a3.936 3.936 0 0 0-1.196-.715 3.639 3.639 0 0 0-1.313-.234c-.927 0-1.633.282-2.119.845-.485.555-.728 1.348-.728 2.379s.243 1.829.728 2.392c.486.563 1.192.845 2.119.845a3.83 3.83 0 0 0 1.313-.221 4.175 4.175 0 0 0 1.196-.728l.546 1.326c-.355.347-.81.62-1.365.819a5.242 5.242 0 0 1-1.742.286Zm4.3-7.852v-1.586h1.82v1.586h-1.82Zm.104 7.722v-6.357h1.625V20h-1.625Zm3.313 0v-6.357h1.586v1.118c.312-.754.979-1.17 2.002-1.248l.494-.039.104 1.378-.936.091c-1.066.104-1.599.65-1.599 1.638V20h-1.651Zm7.392.13c-1.56 0-2.34-.875-2.34-2.626v-3.861h1.625v3.887c0 .45.091.784.273 1.001.182.217.472.325.871.325.433 0 .789-.147 1.066-.442.277-.303.416-.702.416-1.196v-3.575h1.625V20h-1.586v-.949c-.425.72-1.075 1.079-1.95 1.079Zm.065-7.345 1.339-2.639h1.599l-1.846 2.639h-1.092ZM165.616 20v-6.357h1.586v1.118c.312-.754.98-1.17 2.002-1.248l.494-.039.104 1.378-.936.091c-1.066.104-1.599.65-1.599 1.638V20h-1.651Zm7.953 2.47c-.589 0-1.144-.07-1.664-.208a4.018 4.018 0 0 1-1.352-.611l.468-1.131c.364.243.754.42 1.17.533a4.44 4.44 0 0 0 1.248.182c1.162 0 1.742-.559 1.742-1.677v-.871a1.983 1.983 0 0 1-.845.845 2.513 2.513 0 0 1-1.248.312c-.572 0-1.07-.13-1.495-.39a2.701 2.701 0 0 1-.988-1.118c-.234-.477-.351-1.031-.351-1.664s.117-1.183.351-1.651c.234-.477.564-.845.988-1.105.425-.269.923-.403 1.495-.403.477 0 .902.108 1.274.325.373.208.646.49.819.845v-1.04h1.586v5.72c0 1.031-.273 1.807-.819 2.327-.546.52-1.339.78-2.379.78Zm-.039-3.861c.503 0 .902-.173 1.196-.52.295-.347.442-.819.442-1.417 0-.598-.147-1.066-.442-1.404-.294-.347-.693-.52-1.196-.52-.502 0-.901.173-1.196.52-.294.338-.442.806-.442 1.404 0 .598.148 1.07.442 1.417.295.347.694.52 1.196.52Zm4.817-6.331v-1.586h1.82v1.586h-1.82Zm.104 7.722v-6.357h1.625V20h-1.625Zm6.252.13c-.668 0-1.248-.134-1.742-.403a2.856 2.856 0 0 1-1.144-1.17c-.269-.503-.403-1.092-.403-1.768 0-.676.134-1.257.403-1.742.268-.494.65-.871 1.144-1.131.494-.269 1.074-.403 1.742-.403.407 0 .81.065 1.209.195.398.13.728.312.988.546l-.481 1.131a2.376 2.376 0 0 0-.767-.455 2.292 2.292 0 0 0-.806-.156c-.564 0-1.001.178-1.313.533-.304.347-.455.845-.455 1.495 0 .641.151 1.148.455 1.521.312.364.749.546 1.313.546.251 0 .52-.052.806-.156.286-.104.541-.26.767-.468l.481 1.144c-.26.225-.594.407-1.001.546-.399.13-.798.195-1.196.195Zm5.248 0a2.84 2.84 0 0 1-1.235-.26 2.242 2.242 0 0 1-.845-.728 1.831 1.831 0 0 1-.299-1.027c0-.468.122-.836.364-1.105.243-.277.637-.477 1.183-.598s1.279-.182 2.197-.182h.455v-.273c0-.433-.095-.745-.286-.936-.19-.19-.511-.286-.962-.286-.355 0-.719.056-1.092.169a4.753 4.753 0 0 0-1.131.494l-.468-1.105c.226-.156.49-.29.793-.403a5.24 5.24 0 0 1 .975-.273 4.94 4.94 0 0 1 .975-.104c.928 0 1.617.217 2.067.65.451.425.676 1.088.676 1.989V20h-1.521v-1.014a1.807 1.807 0 0 1-.702.845c-.32.2-.702.299-1.144.299Zm.338-1.118c.425 0 .776-.147 1.053-.442.286-.295.429-.667.429-1.118v-.286h-.442c-.814 0-1.382.065-1.703.195-.312.121-.468.347-.468.676 0 .286.1.52.299.702.2.182.477.273.832.273ZM98.645 38l-3.454-7.755h1.507l2.563 5.951 2.563-5.951h1.452L99.822 38h-1.177Zm5.136-6.534v-1.342h1.54v1.342h-1.54Zm.088 6.534v-5.379h1.375V38h-1.375Zm4.871.11a2.28 2.28 0 0 1-1.243-.341 2.282 2.282 0 0 1-.825-.968c-.198-.425-.297-.924-.297-1.496 0-.58.099-1.074.297-1.485.198-.418.473-.74.825-.968a2.28 2.28 0 0 1 1.243-.341c.382 0 .726.084 1.034.253a1.7 1.7 0 0 1 .693.671v-3.19h1.375V38H110.5v-.891a1.669 1.669 0 0 1-.693.737 2.15 2.15 0 0 1-1.067.264Zm.385-1.045c.411 0 .741-.147.99-.44.25-.3.374-.74.374-1.32 0-.587-.124-1.023-.374-1.309-.249-.293-.579-.44-.99-.44-.41 0-.74.147-.99.44-.249.286-.374.722-.374 1.309 0 .58.125 1.02.374 1.32.25.293.58.44.99.44Zm6.794 1.045c-.609 0-1.133-.114-1.573-.341a2.46 2.46 0 0 1-1.023-.968c-.235-.418-.352-.913-.352-1.485 0-.557.114-1.045.341-1.463.235-.418.554-.744.957-.979a2.7 2.7 0 0 1 1.397-.363c.763 0 1.364.242 1.804.726.447.484.671 1.144.671 1.98v.407h-3.85c.103.96.653 1.441 1.65 1.441.301 0 .601-.044.902-.132.301-.095.576-.242.825-.44l.385.924a2.877 2.877 0 0 1-.968.506 3.798 3.798 0 0 1-1.166.187Zm-.198-4.664c-.403 0-.73.125-.979.374-.249.25-.4.587-.451 1.012h2.706c-.029-.447-.154-.788-.374-1.023-.213-.242-.513-.363-.902-.363Zm5.962 4.664c-.557 0-1.041-.114-1.452-.341a2.381 2.381 0 0 1-.957-.968c-.227-.425-.341-.924-.341-1.496s.114-1.067.341-1.485c.227-.418.546-.74.957-.968.411-.227.895-.341 1.452-.341.557 0 1.041.114 1.452.341.411.227.73.55.957.968.227.418.341.913.341 1.485 0 .572-.114 1.07-.341 1.496-.227.418-.546.74-.957.968-.411.227-.895.341-1.452.341Zm0-1.045c.411 0 .741-.147.99-.44.249-.3.374-.74.374-1.32 0-.587-.125-1.023-.374-1.309-.249-.293-.579-.44-.99-.44-.411 0-.741.147-.99.44-.249.286-.374.722-.374 1.309 0 .58.125 1.02.374 1.32.249.293.579.44.99.44Zm5.755 1.045c-.638 0-1.111-.172-1.419-.517-.301-.352-.451-.865-.451-1.54v-5.808h1.375v5.742c0 .66.278.99.836.99a2.7 2.7 0 0 0 .242-.011c.08-.007.157-.022.231-.044l-.022 1.089a3.255 3.255 0 0 1-.792.099Zm3.413 0c-.388 0-.737-.073-1.045-.22a1.9 1.9 0 0 1-.715-.616 1.553 1.553 0 0 1-.253-.869c0-.396.103-.708.308-.935.206-.235.539-.403 1.001-.506.462-.103 1.082-.154 1.859-.154h.385v-.231c0-.367-.08-.63-.242-.792-.161-.161-.432-.242-.814-.242-.3 0-.608.048-.924.143a4.01 4.01 0 0 0-.957.418l-.396-.935c.191-.132.415-.246.671-.341.264-.103.539-.18.825-.231.294-.059.569-.088.825-.088.785 0 1.368.183 1.749.55.382.36.572.92.572 1.683V38h-1.287v-.858c-.124.3-.322.539-.594.715-.271.169-.594.253-.968.253Zm.286-.946c.36 0 .657-.125.891-.374.242-.25.363-.565.363-.946v-.242h-.374c-.689 0-1.169.055-1.441.165-.264.103-.396.293-.396.572 0 .242.085.44.253.594.169.154.404.231.704.231Zm3.959 2.816v-7.359h1.342v.858a1.73 1.73 0 0 1 .693-.704 2.15 2.15 0 0 1 1.067-.264c.469 0 .88.114 1.232.341.359.227.638.55.836.968.198.41.297.906.297 1.485 0 .572-.099 1.07-.297 1.496-.198.418-.473.74-.825.968-.352.227-.766.341-1.243.341-.381 0-.726-.08-1.034-.242a1.79 1.79 0 0 1-.693-.671v2.783h-1.375Zm2.717-2.915c.411 0 .741-.147.99-.44.249-.3.374-.74.374-1.32 0-.587-.125-1.023-.374-1.309-.249-.293-.579-.44-.99-.44-.411 0-.741.147-.99.44-.249.286-.374.722-.374 1.309 0 .58.125 1.02.374 1.32.249.293.579.44.99.44Zm5.65 1.045a2.4 2.4 0 0 1-1.045-.22 1.892 1.892 0 0 1-.715-.616 1.545 1.545 0 0 1-.253-.869c0-.396.102-.708.308-.935.205-.235.539-.403 1.001-.506.462-.103 1.081-.154 1.859-.154h.385v-.231c0-.367-.081-.63-.242-.792-.162-.161-.433-.242-.814-.242-.301 0-.609.048-.924.143a3.977 3.977 0 0 0-.957.418l-.396-.935a3 3 0 0 1 .671-.341c.264-.103.539-.18.825-.231a4.21 4.21 0 0 1 .825-.088c.784 0 1.367.183 1.749.55.381.36.572.92.572 1.683V38h-1.287v-.858a1.54 1.54 0 0 1-.594.715 1.798 1.798 0 0 1-.968.253Zm.286-.946c.359 0 .656-.125.891-.374.242-.25.363-.565.363-.946v-.242h-.374c-.69 0-1.17.055-1.441.165-.264.103-.396.293-.396.572 0 .242.084.44.253.594.168.154.403.231.704.231Zm3.958.836v-5.379h1.342v.946c.264-.638.829-.99 1.694-1.056l.418-.033.088 1.166-.792.077c-.902.088-1.353.55-1.353 1.386V38h-1.397Zm6.675.11c-.557 0-1.041-.114-1.452-.341a2.381 2.381 0 0 1-.957-.968c-.227-.425-.341-.924-.341-1.496s.114-1.067.341-1.485c.227-.418.546-.74.957-.968.411-.227.895-.341 1.452-.341.557 0 1.041.114 1.452.341.411.227.73.55.957.968.227.418.341.913.341 1.485 0 .572-.114 1.07-.341 1.496-.227.418-.546.74-.957.968-.411.227-.895.341-1.452.341Zm0-1.045c.411 0 .741-.147.99-.44.249-.3.374-.74.374-1.32 0-.587-.125-1.023-.374-1.309-.249-.293-.579-.44-.99-.44-.411 0-.741.147-.99.44-.249.286-.374.722-.374 1.309 0 .58.125 1.02.374 1.32.249.293.579.44.99.44Zm5.854 1.045c-.455 0-.88-.055-1.276-.165a2.827 2.827 0 0 1-.99-.473l.352-.902c.271.183.576.326.913.429.337.095.675.143 1.012.143.352 0 .612-.059.781-.176a.57.57 0 0 0 .264-.484c0-.308-.227-.506-.682-.594l-1.1-.209c-.931-.176-1.397-.66-1.397-1.452 0-.352.095-.656.286-.913.198-.257.469-.455.814-.594a3.14 3.14 0 0 1 1.188-.209c.381 0 .748.055 1.1.165.352.103.653.26.902.473l-.374.902a2.422 2.422 0 0 0-.77-.418 2.56 2.56 0 0 0-.847-.154c-.359 0-.627.062-.803.187a.585.585 0 0 0-.253.495c0 .323.209.52.627.594l1.1.209c.477.088.836.25 1.078.484.249.235.374.55.374.946 0 .535-.209.957-.627 1.265-.418.3-.975.451-1.672.451Zm5.888 0c-.565 0-1.056-.114-1.474-.341a2.419 2.419 0 0 1-.968-.99c-.227-.425-.341-.924-.341-1.496s.114-1.063.341-1.474c.227-.418.55-.737.968-.957.418-.227.909-.341 1.474-.341.345 0 .686.055 1.023.165.337.11.616.264.836.462l-.407.957a2.007 2.007 0 0 0-.649-.385 1.939 1.939 0 0 0-.682-.132c-.477 0-.847.15-1.111.451-.257.293-.385.715-.385 1.265 0 .543.128.972.385 1.287.264.308.634.462 1.111.462a2 2 0 0 0 .682-.132c.242-.088.458-.22.649-.396l.407.968c-.22.19-.502.345-.847.462-.337.11-.675.165-1.012.165Zm5.048 0c-.557 0-1.041-.114-1.452-.341a2.381 2.381 0 0 1-.957-.968c-.227-.425-.341-.924-.341-1.496s.114-1.067.341-1.485c.227-.418.546-.74.957-.968.411-.227.895-.341 1.452-.341.557 0 1.041.114 1.452.341.411.227.73.55.957.968.227.418.341.913.341 1.485 0 .572-.114 1.07-.341 1.496-.227.418-.546.74-.957.968-.411.227-.895.341-1.452.341Zm0-1.045c.411 0 .741-.147.99-.44.249-.3.374-.74.374-1.32 0-.587-.125-1.023-.374-1.309-.249-.293-.579-.44-.99-.44-.411 0-.741.147-.99.44-.249.286-.374.722-.374 1.309 0 .58.125 1.02.374 1.32.249.293.579.44.99.44Zm-.462-5.159 1.133-2.233h1.353l-1.562 2.233h-.924Zm4.347 8.074v-7.359h1.342v.858a1.73 1.73 0 0 1 .693-.704 2.15 2.15 0 0 1 1.067-.264c.469 0 .88.114 1.232.341.359.227.638.55.836.968.198.41.297.906.297 1.485 0 .572-.099 1.07-.297 1.496-.198.418-.473.74-.825.968-.352.227-.766.341-1.243.341-.381 0-.726-.08-1.034-.242a1.79 1.79 0 0 1-.693-.671v2.783h-1.375Zm2.717-2.915c.411 0 .741-.147.99-.44.249-.3.374-.74.374-1.32 0-.587-.125-1.023-.374-1.309-.249-.293-.579-.44-.99-.44-.411 0-.741.147-.99.44-.249.286-.374.722-.374 1.309 0 .58.125 1.02.374 1.32.249.293.579.44.99.44Zm3.791-5.599v-1.342h1.54v1.342h-1.54Zm.088 6.534v-5.379h1.375V38h-1.375Zm5.289.11c-.564 0-1.056-.114-1.474-.341a2.425 2.425 0 0 1-.968-.99c-.227-.425-.341-.924-.341-1.496s.114-1.063.341-1.474c.228-.418.55-.737.968-.957.418-.227.91-.341 1.474-.341.345 0 .686.055 1.023.165.338.11.616.264.836.462l-.407.957a1.996 1.996 0 0 0-.649-.385 1.935 1.935 0 0 0-.682-.132c-.476 0-.847.15-1.111.451-.256.293-.385.715-.385 1.265 0 .543.129.972.385 1.287.264.308.635.462 1.111.462a2 2 0 0 0 .682-.132c.242-.088.459-.22.649-.396l.407.968c-.22.19-.502.345-.847.462-.337.11-.674.165-1.012.165Zm4.442 0a2.4 2.4 0 0 1-1.045-.22 1.892 1.892 0 0 1-.715-.616 1.545 1.545 0 0 1-.253-.869c0-.396.102-.708.308-.935.205-.235.539-.403 1.001-.506.462-.103 1.081-.154 1.859-.154h.385v-.231c0-.367-.081-.63-.242-.792-.162-.161-.433-.242-.814-.242-.301 0-.609.048-.924.143a3.977 3.977 0 0 0-.957.418l-.396-.935a3 3 0 0 1 .671-.341c.264-.103.539-.18.825-.231a4.21 4.21 0 0 1 .825-.088c.784 0 1.367.183 1.749.55.381.36.572.92.572 1.683V38h-1.287v-.858a1.54 1.54 0 0 1-.594.715 1.798 1.798 0 0 1-.968.253Zm.286-.946c.359 0 .656-.125.891-.374.242-.25.363-.565.363-.946v-.242h-.374c-.69 0-1.17.055-1.441.165-.264.103-.396.293-.396.572 0 .242.084.44.253.594.168.154.403.231.704.231ZM96.813 56.13c-1.014 0-1.872-.19-2.574-.572a3.825 3.825 0 0 1-1.586-1.625c-.364-.702-.546-1.534-.546-2.496 0-.97.186-1.807.559-2.509.373-.71.91-1.257 1.612-1.638.702-.39 1.543-.585 2.522-.585a5.59 5.59 0 0 1 1.807.286c.563.182 1.031.438 1.404.767l-.559 1.3a4.064 4.064 0 0 0-1.248-.689 4.502 4.502 0 0 0-1.404-.208c-.97 0-1.707.282-2.21.845-.494.563-.741 1.374-.741 2.431 0 1.066.256 1.876.767 2.431.511.555 1.27.832 2.275.832.286 0 .576-.022.871-.065.303-.052.602-.126.897-.221v-2.132h-2.106v-1.235h3.497v4.407a6.412 6.412 0 0 1-1.508.494 8.436 8.436 0 0 1-1.729.182Zm7.31 0c-1.56 0-2.34-.875-2.34-2.626v-3.861h1.625v3.887c0 .45.091.784.273 1.001.182.217.473.325.871.325.434 0 .789-.147 1.066-.442.278-.303.416-.702.416-1.196v-3.575h1.625V56h-1.586v-.949c-.424.72-1.074 1.079-1.95 1.079Zm7.555 0a5.61 5.61 0 0 1-1.508-.195c-.468-.13-.858-.316-1.17-.559l.416-1.066c.32.217.68.386 1.079.507.398.113.797.169 1.196.169.416 0 .723-.07.923-.208.208-.147.312-.338.312-.572 0-.364-.269-.598-.806-.702l-1.3-.247c-1.101-.208-1.651-.78-1.651-1.716 0-.416.112-.776.338-1.079.234-.303.554-.537.962-.702.407-.165.875-.247 1.404-.247.45 0 .884.065 1.3.195.416.121.771.308 1.066.559l-.442 1.066a2.871 2.871 0 0 0-.91-.494 3.03 3.03 0 0 0-1.001-.182c-.425 0-.741.074-.949.221a.691.691 0 0 0-.299.585c0 .381.247.615.741.702l1.3.247c.563.104.988.295 1.274.572.294.277.442.65.442 1.118 0 .633-.247 1.131-.741 1.495-.494.355-1.153.533-1.976.533Zm6.869 0c-1.682 0-2.522-.832-2.522-2.496v-2.769h-1.222v-1.222h1.222v-1.898h1.625v1.898h1.924v1.222h-1.924v2.678c0 .416.091.728.273.936.182.208.476.312.884.312.121 0 .247-.013.377-.039.13-.035.264-.07.403-.104l.247 1.196a2.186 2.186 0 0 1-.598.208 3.172 3.172 0 0 1-.689.078Zm4.17 0a2.84 2.84 0 0 1-1.235-.26 2.242 2.242 0 0 1-.845-.728 1.831 1.831 0 0 1-.299-1.027c0-.468.121-.836.364-1.105.243-.277.637-.477 1.183-.598s1.278-.182 2.197-.182h.455v-.273c0-.433-.095-.745-.286-.936-.191-.19-.511-.286-.962-.286-.355 0-.719.056-1.092.169a4.73 4.73 0 0 0-1.131.494l-.468-1.105c.225-.156.49-.29.793-.403a5.24 5.24 0 0 1 .975-.273 4.94 4.94 0 0 1 .975-.104c.927 0 1.616.217 2.067.65.451.425.676 1.088.676 1.989V56h-1.521v-1.014a1.807 1.807 0 0 1-.702.845c-.321.2-.702.299-1.144.299Zm.338-1.118c.425 0 .776-.147 1.053-.442.286-.295.429-.667.429-1.118v-.286h-.442c-.815 0-1.382.065-1.703.195-.312.121-.468.347-.468.676 0 .286.1.52.299.702.199.182.477.273.832.273Zm6.487.988-2.756-6.357h1.729l1.768 4.446 1.833-4.446h1.625L130.946 56h-1.404Zm7.755.13c-.658 0-1.23-.134-1.716-.403a2.823 2.823 0 0 1-1.131-1.144c-.268-.503-.403-1.092-.403-1.768 0-.676.135-1.261.403-1.755a2.823 2.823 0 0 1 1.131-1.144c.486-.269 1.058-.403 1.716-.403.659 0 1.231.134 1.716.403.486.269.863.65 1.131 1.144.269.494.403 1.079.403 1.755 0 .676-.134 1.265-.403 1.768a2.811 2.811 0 0 1-1.131 1.144c-.485.269-1.057.403-1.716.403Zm0-1.235c.486 0 .876-.173 1.17-.52.295-.355.442-.875.442-1.56 0-.693-.147-1.209-.442-1.547-.294-.347-.684-.52-1.17-.52-.485 0-.875.173-1.17.52-.294.338-.442.854-.442 1.547 0 .685.148 1.205.442 1.56.295.347.685.52 1.17.52Zm12.516 1.235c-.954 0-1.773-.19-2.457-.572a3.95 3.95 0 0 1-1.56-1.638c-.364-.71-.546-1.547-.546-2.509s.182-1.794.546-2.496a3.866 3.866 0 0 1 1.56-1.625c.684-.39 1.503-.585 2.457-.585a5.24 5.24 0 0 1 1.742.286c.554.19 1.009.464 1.365.819l-.546 1.326a3.948 3.948 0 0 0-1.196-.715 3.643 3.643 0 0 0-1.313-.234c-.928 0-1.634.282-2.119.845-.486.555-.728 1.348-.728 2.379s.242 1.829.728 2.392c.485.563 1.191.845 2.119.845.468 0 .905-.074 1.313-.221a4.188 4.188 0 0 0 1.196-.728l.546 1.326c-.356.347-.811.62-1.365.819a5.247 5.247 0 0 1-1.742.286Zm6.267 0a2.84 2.84 0 0 1-1.235-.26 2.242 2.242 0 0 1-.845-.728 1.831 1.831 0 0 1-.299-1.027c0-.468.122-.836.364-1.105.243-.277.637-.477 1.183-.598s1.279-.182 2.197-.182h.455v-.273c0-.433-.095-.745-.286-.936-.19-.19-.511-.286-.962-.286-.355 0-.719.056-1.092.169a4.753 4.753 0 0 0-1.131.494l-.468-1.105c.226-.156.49-.29.793-.403a5.24 5.24 0 0 1 .975-.273 4.94 4.94 0 0 1 .975-.104c.928 0 1.617.217 2.067.65.451.425.676 1.088.676 1.989V56h-1.521v-1.014a1.807 1.807 0 0 1-.702.845c-.32.2-.702.299-1.144.299Zm.338-1.118c.425 0 .776-.147 1.053-.442.286-.295.429-.667.429-1.118v-.286h-.442c-.814 0-1.382.065-1.703.195-.312.121-.468.347-.468.676 0 .286.1.52.299.702.2.182.477.273.832.273Zm4.679.988v-6.357h1.586v1.118c.312-.754.979-1.17 2.002-1.248l.494-.039.104 1.378-.936.091c-1.066.104-1.599.65-1.599 1.638V56h-1.651Zm7.356 0-2.756-6.357h1.729l1.768 4.446 1.833-4.446h1.625L169.857 56h-1.404Zm6.95.13a2.84 2.84 0 0 1-1.235-.26 2.234 2.234 0 0 1-.845-.728 1.823 1.823 0 0 1-.299-1.027c0-.468.121-.836.364-1.105.242-.277.637-.477 1.183-.598s1.278-.182 2.197-.182h.455v-.273c0-.433-.096-.745-.286-.936-.191-.19-.512-.286-.962-.286-.356 0-.72.056-1.092.169a4.73 4.73 0 0 0-1.131.494l-.468-1.105c.225-.156.489-.29.793-.403a5.24 5.24 0 0 1 .975-.273c.346-.07.671-.104.975-.104.927 0 1.616.217 2.067.65.45.425.676 1.088.676 1.989V56h-1.521v-1.014a1.82 1.82 0 0 1-.702.845c-.321.2-.702.299-1.144.299Zm.338-1.118c.424 0 .775-.147 1.053-.442.286-.295.429-.667.429-1.118v-.286h-.442c-.815 0-1.383.065-1.703.195-.312.121-.468.347-.468.676 0 .286.099.52.299.702.199.182.476.273.832.273Zm6.888 1.118c-.754 0-1.313-.204-1.677-.611-.355-.416-.533-1.023-.533-1.82v-6.864h1.625v6.786c0 .78.329 1.17.988 1.17.095 0 .191-.004.286-.013.095-.009.186-.026.273-.052l-.026 1.287a3.846 3.846 0 0 1-.936.117Zm1.941-.13v-9.165h1.625v3.731c.217-.347.507-.607.871-.78a2.665 2.665 0 0 1 1.209-.273c1.5 0 2.249.871 2.249 2.613V56h-1.625v-3.796c0-.494-.095-.854-.286-1.079-.182-.225-.468-.338-.858-.338-.476 0-.858.152-1.144.455-.277.295-.416.689-.416 1.183V56h-1.625Zm10.504.13c-.659 0-1.231-.134-1.716-.403a2.823 2.823 0 0 1-1.131-1.144c-.269-.503-.403-1.092-.403-1.768 0-.676.134-1.261.403-1.755a2.823 2.823 0 0 1 1.131-1.144c.485-.269 1.057-.403 1.716-.403s1.231.134 1.716.403c.485.269.862.65 1.131 1.144.269.494.403 1.079.403 1.755 0 .676-.134 1.265-.403 1.768a2.823 2.823 0 0 1-1.131 1.144c-.485.269-1.057.403-1.716.403Zm0-1.235c.485 0 .875-.173 1.17-.52.295-.355.442-.875.442-1.56 0-.693-.147-1.209-.442-1.547-.295-.347-.685-.52-1.17-.52-.485 0-.875.173-1.17.52-.295.338-.442.854-.442 1.547 0 .685.147 1.205.442 1.56.295.347.685.52 1.17.52Z"/>
  </g>
  <defs>
    <linearGradient id="b" x1="42.167" x2="-.254" y1="-2.569" y2="68.719" gradientUnits="userSpaceOnUse">
      <stop offset=".104" stop-color="#001D4A"/>
      <stop offset=".893" stop-color="#006992" stop-opacity=".15"/>
    </linearGradient>
    <linearGradient id="c" x1="77.355" x2="33.739" y1="-10.786" y2="61.064" gradientUnits="userSpaceOnUse">
      <stop offset=".176" stop-color="#80B4C9" stop-opacity=".23"/>
      <stop offset=".795" stop-color="#80B4C9"/>
    </linearGradient>
    <linearGradient id="d" x1="77.355" x2="33.739" y1="-10.786" y2="61.064" gradientUnits="userSpaceOnUse">
      <stop offset=".176" stop-color="#80B4C9" stop-opacity=".23"/>
      <stop offset=".795" stop-color="#80B4C9"/>
    </linearGradient>
    <filter id="a" width="216" height="71" x="0" y="0" color-interpolation-filters="sRGB" filterUnits="userSpaceOnUse">
      <feFlood flood-opacity="0" result="BackgroundImageFix"/>
      <feColorMatrix in="SourceAlpha" result="hardAlpha" values="0 0 0 0 0 0 0 0 0 0 0 0 0 0 0 0 0 0 127 0"/>
      <feOffset dy="4"/>
      <feGaussianBlur stdDeviation="2"/>
      <feComposite in2="hardAlpha" operator="out"/>
      <feColorMatrix values="0 0 0 0 0 0 0 0 0 0 0 0 0 0 0 0 0 0 0.25 0"/>
      <feBlend in2="BackgroundImageFix" result="effect1_dropShadow_178_732"/>
      <feBlend in="SourceGraphic" in2="effect1_dropShadow_178_732" result="shape"/>
    </filter>
  </defs>
</svg>
